<svg xmlns="http://www.w3.org/2000/svg" viewBox="0 0 240 240" x="0px" y="0px"><title>Artboard 1</title><path d="M136.52,108.67H98v38.48h38.48Zm-4.5,34H102.54V113.17H132Z"></path><path d="M190.53,165.41V135.65h-44v-5.51h7.76v-4.5h-7.76v-5.51h7.76v-4.5h-7.76v-5.51h26.05V75.49a12.25,12.25,0,1,0-4.5,0v30.14H146.53v-7h-7V90.9h-4.5v7.76h-5.51V90.9h-4.5v7.76h-5.51V90.9h-4.5v7.76h-5.51V90.9H105v7.76H99.54V90.9H95v7.76H88v7H82.52V69.48a12.25,12.25,0,1,0-4.5,0v40.64H88v5.51H80.27v4.5H88v5.51H56.25V106.53a12.25,12.25,0,1,0-4.5,0v23.61H88v5.51H80.27v4.5H88v5.51H51.75v21.23a12.25,12.25,0,1,0,4.5,0V150.16H88v7h7v7.76h4.5v-7.76H105v7.76h4.5v-7.76h5.51v7.76h4.5v-7.76h5.51v7.76h4.5v-7.76h5.51v7.76h4.5v-7.76h7v-7h7.76v-4.5h-7.76v-5.51H186v25.26a12.25,12.25,0,1,0,4.5,0Zm-28-102a7.75,7.75,0,1,1,7.75,7.75A7.76,7.76,0,0,1,162.58,63.46Zm-90.06-6a7.75,7.75,0,1,1,7.75,7.75A7.76,7.76,0,0,1,72.52,57.45Zm-26.27,37A7.75,7.75,0,1,1,54,102.24,7.76,7.76,0,0,1,46.25,94.49Zm15.5,84.43A7.75,7.75,0,1,1,54,171.17,7.76,7.76,0,0,1,61.75,178.92ZM142,152.66H92.53v-49.5H142Zm46.25,32.53a7.75,7.75,0,1,1,7.75-7.75A7.76,7.76,0,0,1,188.28,185.2Z"></path><path d="M96.93,75.67A8.48,8.48,0,0,1,104,68.94c3.33-.6,7.9.48,11,5.18v9.34h4.5V74a9.67,9.67,0,0,1,9.71-5.53,9.48,9.48,0,0,1,8.41,7.31l.48,2,2.06-.32a7.11,7.11,0,0,1,5.93,1.37,8,8,0,0,1,2.33,6.28l4.5.07a12.33,12.33,0,0,0-3.87-9.75,11,11,0,0,0-7.62-2.59,14.15,14.15,0,0,0-24.37-3.42,14.92,14.92,0,0,0-13.83-4.92A13,13,0,0,0,92.5,74.84Z"></path><path d="M146.4,180.23c-1.35,1.22-3.48,1.71-6.34,1.44l-1.64-.16-.64,1.52c-1.74,4.13-5.36,7-9.21,7.25-3.49.25-6.68-1.62-9-5.25V175.7H115v9.36c-2.35,3.61-5.52,5.47-9,5.22-3.85-.27-7.47-3.12-9.21-7.25l-.64-1.5-1.63.14c-2.69.23-4.87-.33-6.27-1.63-1.77-1.62-2.14-4.18-2.14-6h-4.5c0,4,1.24,7.19,3.59,9.35a11.74,11.74,0,0,0,8.12,2.86,15.65,15.65,0,0,0,12.35,8.55q.47,0,.94,0a14,14,0,0,0,10.65-5.24,14,14,0,0,0,10.65,5.24q.47,0,.94,0a15.65,15.65,0,0,0,12.34-8.53q5.17.07,8.2-2.68c2.34-2.12,3.52-5.34,3.52-9.56h-4.5C148.45,176.9,147.76,179,146.4,180.23Z"></path><polygon points="177.58 127.91 177.58 125.16 180.34 125.16 180.34 120.66 177.58 120.66 177.58 117.9 173.08 117.9 173.08 120.66 170.33 120.66 170.33 125.16 173.08 125.16 173.08 127.91 177.58 127.91"></polygon><polygon points="69.84 157.91 65.34 157.91 65.34 160.67 62.59 160.67 62.59 165.17 65.34 165.17 65.34 167.92 69.84 167.92 69.84 165.17 72.6 165.17 72.6 160.67 69.84 160.67 69.84 157.91"></polygon><polygon points="140.07 57.46 144.57 57.46 144.57 54.7 147.33 54.7 147.33 50.2 144.57 50.2 144.57 47.45 140.07 47.45 140.07 50.2 137.32 50.2 137.32 54.7 140.07 54.7 140.07 57.46"></polygon><polygon points="44.47 69.56 48.97 69.56 48.97 66.8 51.73 66.8 51.73 62.3 48.97 62.3 48.97 59.55 44.47 59.55 44.47 62.3 41.72 62.3 41.72 66.8 44.47 66.8 44.47 69.56"></polygon><polygon points="167.58 157.94 163.08 157.94 163.08 160.69 160.32 160.69 160.32 165.19 163.08 165.19 163.08 167.94 167.58 167.94 167.58 165.19 170.33 165.19 170.33 160.69 167.58 160.69 167.58 157.94"></polygon></svg>